FILE "Psychic Detective Series Vol. 4 - Orgel (1993)(Data West)(JP).img" BINARY
  TRACK 01 MODE1/2352
    INDEX 01 00:00:00
  TRACK 02 AUDIO
    PREGAP 00:02:00
    INDEX 01 15:12:17
  TRACK 03 AUDIO
    INDEX 00 15:47:49
    INDEX 01 15:49:48
  TRACK 04 AUDIO
    INDEX 00 20:41:19
    INDEX 01 20:43:18
  TRACK 05 AUDIO
    INDEX 00 23:40:44
    INDEX 01 23:42:43
  TRACK 06 AUDIO
    INDEX 00 25:47:36
    INDEX 01 25:49:35
  TRACK 07 AUDIO
    INDEX 00 28:18:08
    INDEX 01 28:20:07
